<?xml version="1.0" encoding="UTF-8" standalone="no"?>
<!-- Generator: Adobe Illustrator 17.0.0, SVG Export Plug-In . SVG Version: 6.00 Build 0)  -->

<svg
   xmlns:dc="http://purl.org/dc/elements/1.1/"
   xmlns:cc="http://creativecommons.org/ns#"
   xmlns:rdf="http://www.w3.org/1999/02/22-rdf-syntax-ns#"
   xmlns:svg="http://www.w3.org/2000/svg"
   xmlns="http://www.w3.org/2000/svg"
   xmlns:sodipodi="http://sodipodi.sourceforge.net/DTD/sodipodi-0.dtd"
   xmlns:inkscape="http://www.inkscape.org/namespaces/inkscape"
   version="1.1"
   x="0px"
   y="0px"
   width="297.64px"
   height="170.08px"
   viewBox="0 0 297.64 170.08"
   enable-background="new 0 0 297.64 170.08"
   xml:space="preserve"
   id="svg92"
   sodipodi:docname="bird_branch.svg"
   inkscape:version="0.92.5 (2060ec1f9f, 2020-04-08)"><metadata
   id="metadata98"><rdf:RDF><cc:Work
       rdf:about=""><dc:format>image/svg+xml</dc:format><dc:type
         rdf:resource="http://purl.org/dc/dcmitype/StillImage" /><dc:title></dc:title></cc:Work></rdf:RDF></metadata><defs
   id="defs96"><linearGradient
     id="a"
     x1="231.57001"
     x2="228.09"
     y1="419.97"
     y2="410.60999"
     gradientTransform="matrix(0.24647165,-0.39479169,-0.39479169,-0.24647165,337.35742,326.17601)"
     gradientUnits="userSpaceOnUse"><stop
       stop-color="#8a0"
       offset="0"
       id="stop22" /><stop
       stop-color="#8a0"
       stop-opacity="0"
       offset="1"
       id="stop24" /></linearGradient><linearGradient
     id="b"
     x1="66.938004"
     x2="66.084999"
     y1="120.99"
     y2="76.039001"
     gradientUnits="userSpaceOnUse"
     gradientTransform="matrix(0.31578282,0,0,0.31578282,11.848493,88.732588)"><stop
       stop-color="#450"
       offset="0"
       id="stop17" /><stop
       stop-color="#450"
       stop-opacity="0"
       offset="1"
       id="stop19" /></linearGradient><linearGradient
     id="c"
     x1="128.89"
     x2="144.49001"
     y1="61.853001"
     y2="59.799999"
     gradientUnits="userSpaceOnUse"
     gradientTransform="matrix(0.31578282,0,0,0.31578282,11.848493,88.732588)"><stop
       stop-color="#668000"
       offset="0"
       id="stop12" /><stop
       stop-color="#668000"
       stop-opacity="0"
       offset="1"
       id="stop14" /></linearGradient><linearGradient
     id="d"
     x1="198.5"
     x2="206.77"
     y1="406.64001"
     y2="445.48999"
     gradientTransform="matrix(0.71900592,0,0,0.5600724,-80.644301,-113.27684)"
     gradientUnits="userSpaceOnUse"><stop
       stop-color="#28170b"
       offset="0"
       id="stop7" /><stop
       stop-color="#28170b"
       stop-opacity="0"
       offset="1"
       id="stop9" /></linearGradient><linearGradient
     id="e"
     x1="292.10999"
     x2="291.94"
     y1="476.45001"
     y2="459.20999"
     gradientTransform="matrix(0.71900592,0,0,0.5600724,-80.644301,-113.27684)"
     gradientUnits="userSpaceOnUse"><stop
       stop-color="#502d16"
       offset="0"
       id="stop2" /><stop
       stop-color="#502d16"
       stop-opacity="0"
       offset="1"
       id="stop4" /></linearGradient></defs><sodipodi:namedview
   pagecolor="#ffffff"
   bordercolor="#666666"
   borderopacity="1"
   objecttolerance="10"
   gridtolerance="10"
   guidetolerance="10"
   inkscape:pageopacity="0"
   inkscape:pageshadow="2"
   inkscape:window-width="1057"
   inkscape:window-height="716"
   id="namedview94"
   showgrid="false"
   inkscape:zoom="1.61"
   inkscape:cx="151.63917"
   inkscape:cy="85.040001"
   inkscape:window-x="378"
   inkscape:window-y="88"
   inkscape:window-maximized="0"
   inkscape:current-layer="layer2" />








<g
   inkscape:groupmode="layer"
   id="layer2"
   inkscape:label="Layer 2"><path
     d="m 46.205664,140.28098 -2.054262,-0.8001 c 0,0 -4.622113,-0.20003 -6.933328,0 -2.311215,0.20003 -3.851919,1.60023 -3.081409,3.00041 0.77051,1.40018 6.507653,3.18625 11.386497,2.78615 4.878845,-0.4001 20.968296,1.61441 31.496494,3.01462 10.5282,1.40022 25.704404,-0.24857 36.744484,0.55155 11.04009,0.80011 53.31993,1.22473 55.63146,0.42463 2.31153,-0.8001 6.13693,-0.15149 9.73212,-0.15149 3.59518,0 23.88108,0.49714 31.84038,-0.50301 7.9593,-1.00015 9.8019,-1.66885 13.91054,-1.66885 4.10865,0 12.67711,-0.52069 14.03497,-0.3172 0.87674,0.13138 1.54071,-3.60056 -1.02715,-3.60056 -2.56785,0 -12.02469,-0.0142 -15.1061,-0.0142 -3.08141,0 -2.82461,0 -4.87884,-0.60008 -2.05423,-0.60008 -1.02715,-0.20003 -4.10865,-0.60008 -3.08151,-0.40006 -3.59487,-0.60009 -3.08141,-2.00027 0.51347,-1.40018 1.02714,-1.80025 -1.5407,-1.80025 -2.56785,0 -1.7975,2.60035 -4.62211,3.40036 -2.82463,0.8 -11.55545,-0.89718 -14.63686,-0.0971 -3.0814,0.8001 -10.52819,1.60019 -13.60961,1.60019 -3.08141,0 -42.38437,-0.24471 -49.57474,-0.24471 -7.19038,0 -34.559269,-0.77999 -39.952842,-1.18005 -5.393572,-0.40007 -12.582369,-0.40004 -15.663775,-0.40004 -3.081409,0 -6.933327,1.6002 -6.933327,-0.60008 0,-2.20028 0.166838,-2.75817 4.532115,-4.95842 4.365276,-2.20025 7.960252,-3.20046 7.703519,-4.00065 -0.256727,-0.8002 0,-2.00027 -1.540702,-2.00027 -1.540702,0 -2.221122,0.15783 -6.072819,1.358 -3.851698,1.20016 -10.784931,4.20055 -10.784931,4.20055 0,0 0.256792,-1.60021 2.054294,-3.40036 1.797502,-1.80015 4.622112,-1.40018 4.878844,-4.20054 0.256732,-2.80036 2.054262,-5.80093 1.540705,-6.80101 -0.513558,-1.00009 -3.851919,-1.40019 -3.851919,-1.40019 0,0 -0.770352,2.00027 -2.311056,3.20046 -1.540706,1.2002 -0.513558,1.40018 -2.054263,0.40007 -1.540705,-1.00012 -3.594872,0.40003 -3.594872,1.40018 0,1.00015 2.311057,1.40018 2.054263,2.60034 -0.256795,1.20017 -1.283911,6.20071 -4.365382,8.001 -3.081472,1.80027 -6.162817,5.40083 -6.162817,5.40083 z"
     id="path29"
     inkscape:connector-curvature="0"
     style="fill:#a05a2c;fill-rule:evenodd;stroke:#28170b;stroke-width:0.12691627" /><path
     d="m 46.205664,140.28098 -2.054262,-0.8001 c 0,0 -4.622113,-0.20003 -6.933328,0 -2.311215,0.20003 -3.851919,1.60023 -3.081409,3.00041 0.77051,1.40018 6.507653,3.18625 11.386497,2.78615 4.878845,-0.4001 20.968296,1.61441 31.496494,3.01462 10.5282,1.40022 25.704404,-0.24857 36.744484,0.55155 11.04009,0.80011 53.31993,1.22473 55.63146,0.42463 2.31153,-0.8001 6.13693,-0.15149 9.73212,-0.15149 3.59518,0 23.88108,0.49714 31.84038,-0.50301 7.9593,-1.00015 9.8019,-1.66885 13.91054,-1.66885 4.10865,0 12.67711,-0.52069 14.03497,-0.3172 0.87674,0.13138 1.54071,-3.60056 -1.02715,-3.60056 -2.56785,0 -12.02469,-0.0142 -15.1061,-0.0142 -3.08141,0 -2.82461,0 -4.87884,-0.60008 -2.05423,-0.60008 -1.02715,-0.20003 -4.10865,-0.60008 -3.08151,-0.40006 -3.59487,-0.60009 -3.08141,-2.00027 0.51347,-1.40018 1.02714,-1.80025 -1.5407,-1.80025 -2.56785,0 -1.7975,2.60035 -4.62211,3.40036 -2.82463,0.8 -11.55545,-0.89718 -14.63686,-0.0971 -3.0814,0.8001 -10.52819,1.60019 -13.60961,1.60019 -3.08141,0 -42.38437,-0.24471 -49.57474,-0.24471 -7.19038,0 -34.559269,-0.77999 -39.952842,-1.18005 -5.393572,-0.40007 -12.582369,-0.40004 -15.663775,-0.40004 -3.081409,0 -6.933327,1.6002 -6.933327,-0.60008 0,-2.20028 -0.135639,-2.75817 4.229595,-4.95842 4.365233,-2.20025 7.960251,-3.20046 7.703524,-4.00065 -0.256733,-0.8002 0,-2.00027 -1.540709,-2.00027 -1.540702,0 -1.918631,0.15783 -5.770297,1.358 -3.851666,1.20016 -10.784931,4.20055 -10.784931,4.20055 0,0 0.256792,-1.60021 2.054294,-3.40036 1.797502,-1.80015 4.622112,-1.40018 4.878844,-4.20054 0.256732,-2.80036 2.054262,-5.80093 1.540705,-6.80101 -0.513558,-1.00009 -3.851919,-1.40019 -3.851919,-1.40019 0,0 -0.770352,2.00027 -2.311056,3.20046 -1.540706,1.2002 -0.513558,1.40018 -2.054263,0.40007 -1.540705,-1.00012 -3.594872,0.40003 -3.594872,1.40018 0,1.00015 2.311057,1.40018 2.054263,2.60034 -0.256795,1.20017 -1.283911,6.20071 -4.365382,8.001 -3.081472,1.80027 -6.162817,5.40083 -6.162817,5.40083 z"
     id="path31-6"
     style="fill:url(#e);fill-rule:evenodd;stroke-width:0.31578279"
     inkscape:connector-curvature="0" /><path
     d="m 46.205664,140.28098 -2.054262,-0.8001 c 0,0 -4.622113,-0.20003 -6.933328,0 -2.311215,0.20003 -3.851919,1.60023 -3.081409,3.00041 0.77051,1.40018 6.507653,3.18625 11.386497,2.78615 4.878845,-0.4001 20.968296,1.61441 31.496494,3.01462 10.5282,1.40022 25.704404,-0.24857 36.744484,0.55155 11.04009,0.80011 53.31993,1.22473 55.63146,0.42463 2.31153,-0.8001 6.13693,-0.15149 9.73212,-0.15149 3.59518,0 23.88108,0.49714 31.84038,-0.50301 7.9593,-1.00015 9.8019,-1.66885 13.91054,-1.66885 4.10865,0 12.67711,-0.52069 14.03497,-0.3172 0.87674,0.13138 1.54071,-3.60056 -1.02715,-3.60056 -2.56785,0 -12.02469,-0.0142 -15.1061,-0.0142 -3.08141,0 -2.82461,0 -4.87884,-0.60008 -2.05423,-0.60008 -1.02715,-0.20003 -4.10865,-0.60008 -3.08151,-0.40006 -3.59487,-0.60009 -3.08141,-2.00027 0.51347,-1.40018 1.02714,-1.80025 -1.5407,-1.80025 -2.56785,0 -1.7975,2.60035 -4.62211,3.40036 -2.82463,0.8 -11.55545,-0.89718 -14.63686,-0.0971 -3.0814,0.8001 -10.52819,1.60019 -13.60961,1.60019 -3.08141,0 -42.38437,-0.24471 -49.57474,-0.24471 -7.19038,0 -34.559269,-0.77999 -39.952842,-1.18005 -5.393572,-0.40007 -12.582369,-0.40004 -15.663775,-0.40004 -3.081409,0 -6.933327,1.6002 -6.933327,-0.60008 0,-2.20028 0.06602,-2.75817 4.43138,-4.95842 4.365363,-2.20025 7.960256,-3.20046 7.703523,-4.00065 -0.256734,-0.8002 0,-2.00027 -1.540708,-2.00027 -1.540703,0 -2.12029,0.15783 -5.972082,1.358 -3.851793,1.20016 -10.784931,4.20055 -10.784931,4.20055 0,0 0.256792,-1.60021 2.054294,-3.40036 1.797502,-1.80015 4.622112,-1.40018 4.878844,-4.20054 0.256732,-2.80036 2.054262,-5.80093 1.540705,-6.80101 -0.513558,-1.00009 -3.851919,-1.40019 -3.851919,-1.40019 0,0 -0.770352,2.00027 -2.311056,3.20046 -1.540706,1.2002 -0.513558,1.40018 -2.054263,0.40007 -1.540705,-1.00012 -3.594872,0.40003 -3.594872,1.40018 0,1.00015 2.311057,1.40018 2.054263,2.60034 -0.256795,1.20017 -1.283911,6.20071 -4.365382,8.001 -3.081472,1.80027 -6.162817,5.40083 -6.162817,5.40083 z"
     id="path33-2"
     style="fill:url(#d);fill-rule:evenodd;stroke-width:0.31578279"
     inkscape:connector-curvature="0" /><path
     d="m 58.407512,124.14763 c 0,0 -1.270394,-4.62779 -1.451906,-6.89638 -0.181512,-2.26858 0.272236,-2.54082 -0.453717,-3.62961 -0.725953,-1.08878 -3.992758,-6.44259 -3.992758,-8.34835 0,-1.90574 1.36115,-9.346537 1.270394,-10.798505 -0.09076,-1.451973 0.181487,-2.994507 -0.09074,-3.357404 -0.272227,-0.362898 1.633386,0.18148 3.266774,0.453717 1.633386,0.272236 6.170395,3.538976 6.170395,8.711182 0,5.17221 -1.36115,13.70213 -2.631544,16.15229 -1.270394,2.45016 -2.268584,3.08527 -2.35934,3.72056 -0.09076,0.63528 1.17967,4.53716 1.088914,4.99094 -0.09076,0.45379 -0.816677,-0.90743 -0.816677,-0.99816 z"
     id="path35-6"
     inkscape:connector-curvature="0"
     style="fill:#88aa00;fill-rule:evenodd;stroke-width:0.31578279" /><path
     d="m 56.954912,114.52573 c 0,0 -0.688565,-3.11482 -0.688565,-4.29433 0,-1.17951 0.14411,-3.05299 0.14411,-3.05299"
     id="path37-7"
     inkscape:connector-curvature="0"
     style="fill:#668000;fill-rule:evenodd;stroke-width:0.31578279" /><path
     d="m 53.762347,91.044561 c 0,0 1.270394,0.998158 1.36115,2.540786 0.09076,1.542635 0.09074,2.99451 0.09074,2.99451"
     id="path39-5"
     inkscape:connector-curvature="0"
     style="fill:#668000;fill-rule:evenodd;stroke-width:0.31578279" /><path
     d="m 58.03173,134.14531 c 0,0 -1.088913,-4.89999 -4.355592,-8.43897 -3.266679,-3.53898 -5.353782,-5.17221 -10.798509,-5.53536 -5.444728,-0.36315 -13.883708,-1.99635 -17.150481,-3.26678 -3.266773,-1.27042 -9.618745,-2.9945 -11.524494,-3.53897 -1.90575,-0.54447 -2.903781,-0.54447 -2.903781,-0.54447 0,0 5.716932,-0.99816 8.80213,-1.99635 3.085199,-0.9982 6.079766,-4.44654 10.072525,-5.08158 3.992757,-0.63504 10.072525,0.18149 14.428117,5.08158 4.355592,4.90009 3.811183,8.16678 4.627797,9.16496 0.816614,0.99819 5.716933,3.81119 7.168586,6.98733 1.451653,3.17614 2.631544,6.26134 2.54082,7.62236 -0.09072,1.36103 -0.635197,0.9982 -0.635197,0.9982 l -0.272227,-1.45191 z"
     id="path41-6"
     inkscape:connector-curvature="0"
     style="fill:#668000;fill-rule:evenodd;stroke-width:0.31578279" /><path
     d="m 47.020383,120.38982 c 0,0 -2.829003,-2.28864 -6.277131,-2.83308 -3.448127,-0.54444 -8.13046,-0.45482 -19.55643,-2.586"
     id="path43-9"
     inkscape:connector-curvature="0"
     style="fill:#445500;fill-rule:evenodd;stroke-width:0.31578279" /><path
     d="m 209.77801,140.94412 c 0,0 8.47498,-1.37567 11.46355,-1.54209 2.98856,-0.16642 9.35222,0.13561 12.17468,-1.01774 2.82247,-1.15335 4.49897,-4.04581 4.91958,-5.99893 0.42062,-1.95311 0.42744,-1.87051 0.71026,-2.47794 0.28281,-0.60744 -2.71923,0.39412 -5.36957,0.61565 -2.65033,0.22151 -6.30112,1.44413 -9.24044,4.1917 -2.9393,2.74756 -2.98768,3.16887 -3.93307,3.8317 -0.94539,0.66283 -10.80766,2.40466 -10.72493,2.39774 z"
     id="path45-8"
     inkscape:connector-curvature="0"
     style="fill:#aad400;fill-rule:evenodd;stroke-width:0.31578279" /><path
     d="m 225.77872,135.87897 c 0,0 8.28961,-4.85296 7.85384,-3.5153"
     id="path47-7"
     inkscape:connector-curvature="0"
     style="fill:#88aa00;fill-rule:evenodd;stroke-width:0.31578279" /><path
     d="m 58.448564,124.29605 c 0,0 -1.270395,-4.6278 -1.451906,-6.89638 -0.181512,-2.26858 0.272236,-2.54079 -0.453717,-3.62961 -0.725953,-1.08882 -3.992759,-6.4426 -3.992759,-8.34835 0,-1.90575 1.361151,-9.346541 1.270395,-10.798508 -0.09076,-1.451968 0.181481,-2.994505 -0.09075,-3.357403 -0.272226,-0.362898 1.633387,0.18148 3.266774,0.453716 1.633386,0.272237 6.170396,3.538981 6.170396,8.711185 0,5.17221 -1.36115,13.70213 -2.631544,16.15229 -1.270395,2.45016 -2.268584,3.08526 -2.35934,3.72055 -0.09076,0.6353 1.179669,4.53718 1.088914,4.99095 -0.09076,0.45378 -0.816678,-0.90743 -0.816678,-0.99818 z"
     id="path49-2"
     style="fill:url(#c);fill-rule:evenodd;stroke-width:0.31578279"
     inkscape:connector-curvature="0" /><path
     d="m 58.03173,134.14531 c 0,0 -1.088913,-4.89999 -4.355592,-8.43897 -3.266679,-3.53898 -5.353782,-5.17221 -10.798509,-5.53536 -5.444728,-0.36315 -13.883708,-1.99635 -17.150481,-3.26678 -3.266773,-1.27042 -9.618745,-2.9945 -11.524494,-3.53897 -1.90575,-0.54447 -2.903781,-0.54447 -2.903781,-0.54447 0,0 5.716932,-0.99816 8.80213,-1.99635 3.085199,-0.9982 6.079766,-4.44654 10.072525,-5.08158 3.992757,-0.63504 10.072525,0.18149 14.428117,5.08158 4.355592,4.90009 3.811183,8.16678 4.627797,9.16496 0.816614,0.99819 5.716933,3.81119 7.168586,6.98733 1.451653,3.17614 2.631544,6.26134 2.54082,7.62236 -0.09072,1.36103 -0.635197,0.9982 -0.635197,0.9982 l -0.272227,-1.45191 z"
     id="path51"
     style="fill:url(#b);fill-rule:evenodd;stroke-width:0.31578279"
     inkscape:connector-curvature="0" /><path
     d="m 209.77801,140.94412 c 0,0 8.47498,-1.37567 11.46355,-1.54209 2.98856,-0.16642 9.35222,0.13561 12.17468,-1.01774 2.82247,-1.15335 4.49897,-4.04581 4.91958,-5.99893 0.42062,-1.95311 0.42744,-1.87051 0.71026,-2.47794 0.28281,-0.60744 -2.71923,0.39412 -5.36957,0.61565 -2.65033,0.22151 -6.30112,1.44413 -9.24044,4.1917 -2.9393,2.74756 -2.98768,3.16887 -3.93307,3.8317 -0.94539,0.66283 -10.80766,2.40466 -10.72493,2.39774 z"
     id="path53"
     style="fill:url(#a);fill-rule:evenodd;stroke-width:0.31578279"
     inkscape:connector-curvature="0" /><path
     d="m 34.553909,140.84622 c 0,0 7.747732,1.11179 11.21408,1.90591 3.466347,0.79413 6.93238,0.95294 8.767394,0.15883 1.835014,-0.79412 15.291783,-0.31765 18.758128,0.79413 3.466353,1.11177 10.194421,0.79412 13.049097,2.06472 2.854675,1.27057 5.097365,2.38235 2.038916,2.38235 -3.058455,0 -6.728389,0.31765 -6.728389,0.31765"
     id="path55-8"
     inkscape:connector-curvature="0"
     style="fill:none;stroke:#28170b;stroke-width:0.06345656" /><path
     d="m 70.233578,143.06933 c 0,0 17.738467,0.47649 27.117533,1.11178 9.379059,0.6353 52.808359,1.58823 56.272499,0.47649 3.46413,-1.11175 27.11753,0.79413 31.39923,0.15882 4.2817,-0.6353 16.51513,-1.42941 18.55414,-1.74706 2.03901,-0.31765 14.06844,1.42942 18.35014,1.42942 4.2817,0 16.92311,-0.95293 16.92311,-0.95293"
     id="path57-2"
     inkscape:connector-curvature="0"
     style="fill:none;stroke:#28170b;stroke-width:0.06345656" /><path
     d="m 87.769,146.404 c 0,0 10.602403,-0.15882 19.3698,-0.15882 8.7674,0 22.42816,2.06471 28.74855,1.11177 6.32039,-0.95294 9.99073,-1.90587 9.99073,-1.90587 l 2.6506,-0.31765"
     id="path59"
     inkscape:connector-curvature="0"
     style="fill:none;stroke:#28170b;stroke-width:0.06345656" /><path
     d="m 136.90796,147.8345 c 0,0 30.17589,0.31764 35.27294,-0.63529 5.09705,-0.95294 16.31113,0.47648 22.22417,0.15882 5.91303,-0.31766 10.60241,-1.58822 13.45676,-1.74707 2.85436,-0.15884 12.6411,-0.95294 12.6411,-0.95294"
     id="path61"
     inkscape:connector-curvature="0"
     style="fill:none;stroke:#28170b;stroke-width:0.06345656" /><path
     d="m 202.96657,143.06933 c 0,0 4.89337,-1.42941 5.91271,-2.38235 1.01935,-0.95294 1.01948,-1.74707 1.01948,-1.74707"
     id="path63"
     inkscape:connector-curvature="0"
     style="fill:none;stroke:#28170b;stroke-width:0.06345656" /><path
     d="m 44.544646,139.73467 c 0,0 4.689375,1.74707 6.93238,1.74707 2.243005,0 15.35115,-5.05947 19.63285,-7.44205 4.281702,-2.38258 5.106209,-2.51945 5.106209,-2.51945"
     id="path65-9"
     inkscape:connector-curvature="0"
     style="fill:none;stroke:#28170b;stroke-width:0.06345656" /><path
     d="m 54.330756,138.78101 c 0,0 12.641102,-4.76485 16.311445,-6.19409 3.670342,-1.42922 5.625985,-1.66732 5.625985,-1.66732"
     id="path67-9"
     inkscape:connector-curvature="0"
     style="fill:none;stroke:#28170b;stroke-width:0.06345656" /></g><g
   inkscape:groupmode="layer"
   id="layer1"
   inkscape:label="Layer 1"><g
     style=""
     id="Ebene_1">
	<path
   fill="#584350"
   d="M131.291,113.619c0.253,0,0.562,0.584,0.301,0.901c-1.862,2.567-4.032,4.832-6.204,6.946   c-2.17,2.263-4.404,4.377-6.762,6.416c-4.528,4.303-10.05,8.834-14.701,12.835c-0.299,0.256-0.658,0.362-0.999,0.362   c-0.863,0-1.61-0.674-0.987-1.267c4.528-4.153,10.857-9.816,15.508-13.969c2.297-2.114,4.53-4.151,6.886-6.113   c2.233-2.114,4.404-4.305,6.823-6.041C131.198,113.641,131.244,113.619,131.291,113.619z"
   id="path2" />
	<path
   fill="#584350"
   d="M99.904,139.709c0.716,0,1.422,0.081,2.007,0.446c0.197,0.262,0.132,0.659-0.197,0.659   c-1.118,0-2.236,0.327-3.354,0.459c-1.382,0.065-2.83,0.329-4.277,0.461c-0.986,0.065-2.169,0.197-3.025,0.657   c-0.986,0.592-1.512,1.842-1.842,2.83c-0.132,0.394-0.132,1.051-0.461,1.38c-0.136,0.138-0.308,0.205-0.471,0.205   c-0.227,0-0.438-0.134-0.515-0.402c-0.526-0.856,0.197-2.433,0.659-3.157c0.459-0.988,1.118-1.842,2.039-2.303   c0.986-0.592,2.039-0.789,3.09-0.854c1.514-0.132,3.092-0.329,4.671-0.329C98.755,139.76,99.332,139.709,99.904,139.709z"
   id="path4" />
	<path
   fill="#584350"
   d="M91.616,139.845c0.514-0.046,1.014-0.066,1.482-0.076c1.741,0.043,3.481,0.087,5.228,0.195   c0.912,0.117,1.752,0.175,2.653,0.16c0.702,0.07,1.328,0.082,1.908,0.359c0.301,0.086,0.233,0.486-0.013,0.508   c-0.045,0.004-0.096-0.005-0.153-0.03c-0.382-0.085-0.781-0.073-1.188-0.037c-0.273,0.024-0.547,0.058-0.824,0.083   c-0.756,0.067-1.452,0.064-2.296-0.059c-1.528,0.003-3.136-0.118-4.741-0.175c-0.587,0.024-1.203,0.049-1.819,0.104   c-0.762,0.068-1.523,0.179-2.235,0.388c-0.947,0.282-1.521,0.862-1.646,1.797c-0.119,0.401-0.434,1.145-0.901,1.187   c-0.163,0.014-0.347-0.058-0.546-0.266c-0.545-0.678-0.036-1.976,0.611-2.497C88.253,140.384,89.994,139.989,91.616,139.845z"
   id="path6" />
	<path
   fill="#584350"
   d="M102.545,140.295c0.262,0,0.45,0.276,0.353,0.519c-0.592,0.854-1.775,0.854-2.631,0.986   c-1.118,0.197-2.433,0.329-3.289,1.118c-0.921,0.724-1.25,2.171-1.579,3.354c-0.262,0.921-0.592,1.777-0.525,2.698   c0,0.197-0.132,0.394-0.329,0.592c-0.067,0.065-0.132,0.065-0.264,0.065c-0.262,0-0.525-0.13-0.592-0.459   c-0.262-0.986,0.264-2.171,0.461-3.092c0.327-1.315,0.592-2.763,1.512-3.816c0.789-0.921,2.039-1.315,3.222-1.512   c0.659-0.065,1.317-0.13,1.974-0.13c0.132,0,0.292,0.006,0.461,0.006c0.335,0,0.7-0.03,0.921-0.205   C102.345,140.33,102.45,140.295,102.545,140.295z"
   id="path8" />
	<path
   fill="#584350"
   d="M102.353,140.445c0.132,0,0.268,0.016,0.412,0.039c0.329,0,0.791,0.132,1.12,0.132   c0.327,0,0.722,0.065,1.051,0.197c0.329,0.197,0.461,0.459,0.724,0.657c0.394,0.461,0.724,0.856,0.988,1.315   c0.197,0.264,0.262,0.594,0.262,0.856c0.065,0.329,0.132,0.659-0.065,0.986c-0.099,0.132-0.248,0.197-0.396,0.197   c-0.148,0-0.296-0.065-0.394-0.197c-0.13-0.262-0.13-0.592-0.13-0.854c0-0.197-0.067-0.394-0.067-0.659   c-0.13-0.394-0.262-0.986-0.657-1.118c-0.264-0.065-0.526-0.065-0.791-0.197c-0.197-0.065-0.394-0.065-0.724-0.065   c-0.327,0-0.657-0.067-0.986-0.132c-0.329-0.132-0.657-0.264-0.986-0.461c-0.394-0.065-0.394-0.394-0.067-0.525   C101.898,140.49,102.123,140.445,102.353,140.445z"
   id="path10" />
	<path
   fill="#584350"
   d="M156.466,111.774c0.272,0,0.586,0.42,0.434,0.724c-1.248,2.696-2.893,5.261-4.472,7.826   c-1.512,2.565-3.289,4.999-4.999,7.367c-3.421,4.934-7.302,9.538-10.853,14.34c-0.217,0.296-0.536,0.42-0.852,0.42   c-0.736,0-1.457-0.67-0.858-1.406c3.551-4.934,7.235-9.735,10.853-14.537c1.775-2.435,3.419-4.869,5.261-7.367   c1.712-2.435,3.354-4.934,5.263-7.237C156.304,111.813,156.383,111.774,156.466,111.774z"
   id="path12" />
	<path
   fill="#584350"
   d="M134.478,140.695c0.588,0,1.165,0.079,1.704,0.349c0.262,0.13,0.065,0.592-0.264,0.657   c-0.592,0.065-1.118,0.264-1.643,0.329c-0.659,0.132-1.317,0.262-1.974,0.329c-1.315,0.262-2.565,0.459-3.881,0.724   c-0.988,0.197-2.106,0.327-2.96,0.921c-0.856,0.592-1.315,1.775-1.514,2.763c-0.13,0.525-0.13,1.183-0.459,1.578   c-0.152,0.181-0.329,0.266-0.505,0.266c-0.205,0-0.406-0.118-0.548-0.331c-0.592-0.921,0.197-2.5,0.526-3.289   c0.461-1.053,1.053-1.907,2.039-2.565c0.789-0.592,1.909-0.724,2.895-0.921c1.447-0.197,3.025-0.527,4.472-0.659   C133.048,140.81,133.77,140.695,134.478,140.695z"
   id="path14" />
	<path
   fill="#584350"
   d="M127.302,140.037c1.645,0,3.289,0.132,4.932,0.329l2.435,0.264c0.657,0,1.248,0.065,1.842,0.327   c0.122,0.187-0.045,0.665-0.284,0.665c-0.016,0-0.03-0.002-0.045-0.006c-0.394-0.118-0.789-0.142-1.169-0.142   c-0.254,0-0.501,0.01-0.737,0.01c-0.791,0-1.645,0-2.368-0.065c-1.514-0.065-2.895-0.132-4.342-0.264c-1.25,0-2.498,0-3.749,0.461   c-0.988,0.329-1.382,0.856-1.645,1.777c-0.095,0.465-0.418,1.096-0.81,1.096c-0.162,0-0.333-0.106-0.505-0.373   c-0.526-0.724,0-1.974,0.592-2.5C122.96,140.104,125.328,140.037,127.302,140.037z"
   id="path16" />
	<path
   fill="#584350"
   d="M136.578,140.893c0.264,0,0.459,0.191,0.327,0.414c-0.264,0.789-1.118,1.118-1.909,1.447   c-0.986,0.527-2.039,0.921-2.828,1.645c-0.657,0.657-0.856,1.512-0.986,2.368c-0.197,1.183-0.132,2.236,0.329,3.287   c0.132,0.446-0.335,0.83-0.734,0.83c-0.191,0-0.367-0.089-0.452-0.304c-0.459-1.183-0.592-2.368-0.394-3.616   c0.065-0.988,0.132-2.039,0.724-2.895c0.657-0.921,1.71-1.579,2.698-1.974c0.525-0.262,1.118-0.394,1.643-0.592   c0.461-0.065,0.921-0.132,1.185-0.459C136.309,140.936,136.451,140.893,136.578,140.893z"
   id="path18" />
	<path
   fill="#584350"
   d="M138.597,141.08c0.12,0,0.237,0.008,0.347,0.03c0.329,0.065,0.592,0.329,0.856,0.527   c0.525,0.329,0.921,0.657,1.248,1.051c0.329,0.396,0.724,1.12,0.527,1.712c-0.041,0.205-0.211,0.308-0.396,0.308   c-0.11,0-0.229-0.037-0.327-0.11c-0.262-0.264-0.262-0.526-0.329-0.789l-0.197-0.724c-0.197-0.396-0.459-0.856-0.921-0.988   c-0.087-0.022-0.176-0.03-0.264-0.03c-0.181,0-0.371,0.03-0.59,0.03c-0.329,0-0.592,0-0.921,0.067   c-0.11,0.022-0.219,0.028-0.329,0.028c-0.219,0-0.438-0.028-0.659-0.028c-0.327,0-0.657-0.067-0.986-0.132   c-0.006,0.004-0.01,0.008-0.014,0.008c-0.059,0-0.099-0.351,0.146-0.534c0.329-0.132,0.657-0.329,1.051-0.329   c0.329,0,0.724-0.065,1.053-0.065C138.11,141.109,138.358,141.08,138.597,141.08z"
   id="path20" />
	<path
   fill="#584350"
   d="M173.608,100.656c0,0,42.625,27.956,42.492,29.929c-0.197,1.972-4.934,4.143-15.852,4.999   c-1.461,0.122-2.753,0.181-3.91,0.181c-7.552,0-9.349-2.538-14.31-6.76c-5.592-4.802-23.746-24.205-23.746-24.205L173.608,100.656z   "
   id="path22" />
	<path
   fill="#725F6C"
   d="M170.212,103.736c0.075,0,0.156,0.024,0.239,0.077c1.315,0.791,2.5,1.842,3.618,2.83   c1.315,1.118,2.631,2.236,3.946,3.289c2.565,2.169,5.196,4.407,7.761,6.511c5.066,4.21,10.065,8.485,15.195,12.695   c2.301,1.842,4.604,3.749,6.973,5.657c-0.132-0.034-0.248-0.049-0.363-0.049s-0.231,0.016-0.361,0.049   c-4.407-3.356-8.749-6.973-13.024-10.591c-5.066-4.275-10.262-8.485-15.458-12.695c-1.382-1.118-2.828-2.301-4.275-3.419   c-1.447-1.25-3.157-2.303-4.474-3.751C169.729,104.079,169.924,103.736,170.212,103.736z"
   id="path24" />
	<path
   fill="#725F6C"
   d="M166.734,107.512c0.128,0,0.26,0.065,0.349,0.223l0,0c0.028,0.035,0.059,0.071,0.079,0.091l0.264,0.264   l0.722,0.724c0.659,0.657,1.317,1.38,1.974,2.039c1.909,1.972,3.881,3.946,5.855,5.853c3.618,3.618,7.367,7.237,10.918,10.92   c2.632,2.828,5.592,5.458,8.158,8.288c-0.329,0-0.659-0.067-0.988-0.067c-2.368-2.433-4.999-4.735-7.432-7.235   c-1.382-1.447-2.96-2.895-4.407-4.275c-4.275-4.21-8.552-8.156-12.563-12.236c-1.25-1.248-2.565-2.565-3.289-3.946   C166.197,107.804,166.46,107.512,166.734,107.512z"
   id="path26" />
	<path
   fill="#584350"
   d="M115.601,20.005c12.092,0,18.08,8.363,18.08,8.363s-7.3,0.854-12.299,7.235   c-5.131,6.446-9.932,40.913-9.735,48.345c0.197,7.434,3.419,25.522,3.419,25.522s-0.623,0.063-1.639,0.063   c-2.283,0-6.559-0.316-10.201-2.364c-5.263-2.96-9.144-7.367-13.484-16.775c-5.855-12.693-7.564-27.165-3.224-40.519   c4.737-14.667,13.748-28.809,27.1-29.795C114.297,20.029,114.958,20.005,115.601,20.005z"
   id="path28" />
</g><g
     style=""
     id="Ebene_4">
	<path
   fill="#F2D65F"
   d="M96.148,53.035c4.086,0,9.217,1.94,14.643,2.696c10.853,1.645,31.968,12.695,40.519,19.997   c8.485,7.367,22.298,27.165,22.298,27.165s-10.721,14.275-37.097,14.472c-0.15,0-0.3,0.002-0.448,0.002   c-26.047,0-36.348-11.415-40.862-17.236c-5.985-7.629-9.998-24.205-7.432-38.15C89.019,54.975,92.062,53.035,96.148,53.035z"
   id="path31" />
	<path
   fill="#F8AF5A"
   d="M119.205,55.839c0.211,0,0.414,0.085,0.465,0.286c0.262,0.526,0.525,1.053,0.722,1.514   c0.199,0.327,0.264,0.592,0.329,0.921c0.132,0.327,0.197,0.724-0.065,0.986c-0.039,0.114-0.144,0.185-0.25,0.185   c-0.077,0-0.156-0.037-0.211-0.12c-0.197-0.065-0.262-0.13-0.327-0.327c-0.132-0.132-0.197-0.199-0.197-0.396   c-0.067-0.262-0.264-0.592-0.329-0.789c-0.132-0.592-0.394-1.118-0.592-1.645c-0.067-0.262,0.13-0.526,0.262-0.592   C119.073,55.847,119.14,55.839,119.205,55.839z"
   id="path33" />
	<path
   fill="#F8AF5A"
   d="M114.342,56.783c0.262,0,0.394,0.132,0.394,0.394v0.921v0.197v0.329v0.262c0,0.067-0.067,0.197-0.132,0.264   c-0.099,0.065-0.181,0.099-0.262,0.099c-0.083,0-0.166-0.034-0.264-0.099c-0.065-0.067-0.065-0.197-0.132-0.264v-0.262v-0.329   v-0.197v-0.921C113.946,56.915,114.078,56.783,114.342,56.783z"
   id="path35" />
	<path
   fill="#F8AF5A"
   d="M105.64,55.762c0.051,0,0.103,0.01,0.15,0.035c0.329,0.13,0.394,0.394,0.394,0.657   c-0.065,0.526-0.13,1.053-0.262,1.645c0,0.197-0.065,0.526-0.065,0.789c0,0.197-0.067,0.329-0.067,0.461   c0,0.197-0.065,0.394-0.197,0.527c-0.028,0.11-0.114,0.152-0.209,0.152c-0.132,0-0.28-0.077-0.317-0.152   c-0.13-0.197-0.197-0.264-0.262-0.394c0-0.197-0.067-0.329-0.067-0.527c0-0.329,0-0.592,0.067-0.856   c0.065-0.657,0.262-1.25,0.329-1.907C105.186,55.977,105.415,55.762,105.64,55.762z"
   id="path37" />
	<path
   fill="#F8AF5A"
   d="M117.564,64.085c0.329,0.065,0.526,0.262,0.526,0.459v0.197v0.067v0.065v0.197   c0,0.132,0.132,0.329,0.132,0.459c0.065,0.199,0.065,0.329,0.065,0.526v0.394c0,0.132-0.065,0.329-0.262,0.396   c-0.132,0.065-0.264,0.065-0.396,0.065c0.035,0.034,0.037,0.045,0.026,0.045c-0.022,0-0.099-0.041-0.118-0.055l0,0   c-0.17-0.063-0.174-0.132-0.235-0.319c0-0.065-0.067-0.132-0.067-0.197c-0.13-0.197-0.13-0.329-0.13-0.592   c-0.067-0.394-0.067-0.856-0.067-1.25C117.038,64.282,117.302,64.085,117.564,64.085z"
   id="path39" />
	<path
   fill="#F8AF5A"
   d="M110.954,64.963c0.051,0,0.106,0.014,0.164,0.043c0.197,0.065,0.329,0.327,0.264,0.525   c-0.199,0.461-0.264,0.791-0.264,1.185c0,0.132-0.065,0.394-0.065,0.592c0,0.065-0.067,0.132-0.067,0.197   c-0.13,0.197-0.197,0.264-0.262,0.329c-0.089,0.059-0.164,0.091-0.227,0.091c-0.075,0-0.132-0.047-0.168-0.156   c-0.132-0.067-0.132-0.264-0.197-0.396V67.11c0-0.262,0.065-0.459,0.065-0.659c0.132-0.394,0.197-0.789,0.329-1.118   C110.629,65.128,110.771,64.963,110.954,64.963z"
   id="path41" />
	<path
   fill="#F8AF5A"
   d="M103.248,66.925c0.059,0,0.118,0.018,0.174,0.053c0.329,0.067,0.394,0.197,0.329,0.461   c-0.132,0.394-0.197,0.854-0.329,1.183c-0.13,0.132-0.197,0.394-0.262,0.526c-0.065,0.132-0.065,0.197-0.197,0.264   c-0.067,0.065-0.067,0.197-0.197,0.262c-0.055,0.028-0.12,0.043-0.179,0.043c-0.083,0-0.15-0.032-0.15-0.108v-0.594   c0-0.262,0.065-0.394,0.132-0.657c0.065-0.394,0.262-0.856,0.327-1.185C102.942,67.033,103.094,66.925,103.248,66.925z"
   id="path43" />
	<path
   fill="#F8AF5A"
   d="M119.145,72.685c0.213,0,0.404,0.128,0.457,0.345c0.132,0.394,0.329,0.921,0.461,1.315   c0.13,0.264,0.197,0.526,0.197,0.856c0,0.329,0,0.724-0.394,0.789c-0.039,0.014-0.079,0.018-0.118,0.018   c-0.174,0-0.355-0.095-0.408-0.148c-0.067-0.132-0.132-0.264-0.132-0.329l-0.262-0.791c-0.197-0.459-0.264-0.854-0.329-1.38   c-0.067-0.262,0.065-0.592,0.394-0.659C119.057,72.69,119.102,72.685,119.145,72.685z"
   id="path45" />
	<path
   fill="#F8AF5A"
   d="M113.106,75.388c0.211,0,0.321,0.221,0.381,0.339c0,0.329,0,0.657-0.065,0.986   c0,0.197-0.067,0.329-0.132,0.526c-0.132,0.065-0.132,0.132-0.197,0.197c-0.067,0.132-0.132,0.132-0.264,0.197   c-0.03,0.016-0.069,0.024-0.108,0.024c-0.132,0-0.286-0.085-0.286-0.286v-0.067v-0.262c0-0.065,0-0.132,0.067-0.132   c0-0.197,0.13-0.262,0.13-0.459v-0.067v-0.13v-0.461c0-0.197,0.264-0.394,0.394-0.394C113.054,75.39,113.082,75.388,113.106,75.388   z"
   id="path47" />
	<path
   fill="#F8AF5A"
   d="M106.234,75.56c0.049,0,0.101,0.012,0.148,0.035c0.197,0.065,0.396,0.394,0.329,0.659l-0.262,1.183   c-0.067,0.197-0.067,0.461-0.197,0.592l-0.197,0.527c-0.132,0.067-0.132,0.132-0.197,0.132l-0.067,0.065   c-0.124,0.126-0.223,0.172-0.329,0.172c-0.061,0-0.124-0.016-0.197-0.039c-0.13-0.132-0.327-0.262-0.327-0.461v-0.065v-0.262   c0-0.132,0-0.197,0.13-0.394c0.067-0.132,0.132-0.396,0.197-0.594c0.197-0.394,0.264-0.789,0.461-1.118   C105.778,75.775,106.007,75.56,106.234,75.56z"
   id="path49" />
</g><g
     style=""
     id="Ebene_6">
	<path
   fill="#CCC5C9"
   d="M146.559,82.505c2.425,0,4.78,0.367,6.657,1.378c2.632,1.382,7.237,4.472,11.971,7.631   c3.092,3.881,5.592,7.497,7.105,9.536l1.38-0.327c0,0,2.303,1.512,5.855,3.881c-1.512,1.972-4.013,4.999-7.103,6.841   c-1.712,1.053-3.684,1.775-5.592,2.368c-0.986-1.053-1.972-2.106-2.828-3.027c-0.921,0.461-1.907,0.988-2.895,1.447   c1.053-1.053,2.106-2.104,2.763-3.025c1.842-2.303-0.789-1.974-16.181-10.327c-15.458-8.684-14.47-13.813-14.47-13.813   S140.145,82.505,146.559,82.505z"
   id="path52" />
</g><g
     style=""
     id="Ebene_3">
	<path
   fill="#584350"
   d="M127.105,50.929c0,0,20.587,4.999,34.796,23.351c11.642,14.931,15.523,30.521,15.523,30.521   s-1.205,0.42-3.825,0.42c-4.413,0-12.845-1.193-26.301-7.59c-21.509-10.197-24.14-27.693-25.193-31.574   C121.053,62.176,127.105,50.929,127.105,50.929z"
   id="path55" />
	<path
   fill="#725F6C"
   d="M127.564,50.929L127.564,50.929c2.368,0.724,21.115,6.249,34.337,23.351   c5.458,6.973,9.142,14.142,11.642,19.733c-1.173,1.15-2.573,1.599-4.033,1.599c-2.467,0-5.099-1.288-7.085-2.652   c-3.616-2.498-6.773-5.525-9.209-9.077l0,0c0.132,1.777,0.264,4.013-1.315,5.066c-0.495,0.329-1.037,0.471-1.595,0.471   c-1.439,0-2.989-0.941-4.127-1.986c-3.419-3.161-6.016-7.209-7.543-11.524l0,0c0.245,1.055-0.968,2.185-2.126,2.185   c-1.315,0-2.368-0.724-3.356-1.645C126.249,70.202,124.604,59.678,127.564,50.929z"
   id="path57" />
</g><g
     style=""
     id="Ebene_5">
	<path
   fill="#F18619"
   d="M121.465,22.33c9.696,0,13.663,6.923,14.387,10.642c0.921,4.802-3.025,11.313-0.921,22.955   c2.236,11.709,8.288,38.415-9.603,46.176c-4.048,1.785-8.069,2.658-11.906,2.658c-12.001,0-22.211-8.546-25.85-24.497   c-5.066-23.349,7.959-50.319,24.601-56.173C115.733,22.849,118.813,22.33,121.465,22.33z"
   id="path60" />
	<path
   fill="#FACC00"
   d="M143.822,31.937c3.254,0,5.815,0.077,5.908,0.312c0.264,0.657-17.562,11.313-18.548,11.904   c-0.087,0.053-0.179,0.077-0.28,0.077c-1.039,0-2.721-2.751-3.141-6.653c-0.394-4.277,2.106-5.395,2.106-5.395   S137.968,31.937,143.822,31.937z"
   id="path62" />
</g><g
     style=""
     id="Ebene_7">
	<path
   fill="#F8AF5A"
   d="M130.205,57.077c0.211,0,0.414,0.085,0.465,0.286c0.262,0.527,0.525,1.053,0.722,1.514   c0.199,0.327,0.264,0.592,0.329,0.921c0.132,0.327,0.197,0.724-0.065,0.986c-0.039,0.114-0.144,0.185-0.25,0.185   c-0.077,0-0.156-0.037-0.211-0.12c-0.197-0.065-0.262-0.13-0.327-0.327c-0.132-0.132-0.197-0.199-0.197-0.396   c-0.067-0.262-0.264-0.592-0.329-0.789c-0.132-0.592-0.394-1.118-0.592-1.645c-0.067-0.262,0.13-0.526,0.262-0.592   C130.073,57.085,130.14,57.077,130.205,57.077z"
   id="path65" />
	<path
   fill="#F8AF5A"
   d="M125.342,58.021c0.262,0,0.394,0.132,0.394,0.394v0.921v0.197v0.329v0.262c0,0.067-0.067,0.197-0.132,0.264   c-0.099,0.065-0.181,0.099-0.262,0.099c-0.083,0-0.166-0.034-0.264-0.099c-0.065-0.067-0.065-0.197-0.132-0.264v-0.262v-0.329   v-0.197v-0.921C124.946,58.154,125.078,58.021,125.342,58.021z"
   id="path67" />
	<path
   fill="#F8AF5A"
   d="M116.64,57c0.051,0,0.103,0.01,0.15,0.035c0.329,0.13,0.394,0.394,0.394,0.657   c-0.065,0.526-0.13,1.053-0.262,1.645c0,0.197-0.065,0.526-0.065,0.789c0,0.197-0.067,0.329-0.067,0.461   c0,0.197-0.065,0.394-0.197,0.526c-0.028,0.11-0.114,0.152-0.209,0.152c-0.132,0-0.28-0.077-0.317-0.152   c-0.13-0.197-0.197-0.264-0.262-0.394c0-0.197-0.067-0.329-0.067-0.526c0-0.329,0-0.592,0.067-0.856   c0.065-0.657,0.262-1.25,0.329-1.907C116.186,57.215,116.415,57,116.64,57z"
   id="path69" />
	<path
   fill="#F8AF5A"
   d="M128.564,65.323c0.329,0.065,0.527,0.262,0.527,0.459v0.197v0.067v0.065v0.197   c0,0.132,0.132,0.329,0.132,0.459c0.065,0.199,0.065,0.329,0.065,0.526v0.394c0,0.132-0.065,0.329-0.262,0.396   c-0.132,0.065-0.264,0.065-0.396,0.065c0.035,0.034,0.037,0.045,0.026,0.045c-0.022,0-0.099-0.041-0.118-0.055l0,0   c-0.17-0.063-0.174-0.132-0.235-0.319c0-0.065-0.067-0.132-0.067-0.197c-0.13-0.197-0.13-0.329-0.13-0.592   c-0.067-0.394-0.067-0.856-0.067-1.25C128.038,65.521,128.302,65.323,128.564,65.323z"
   id="path71" />
	<path
   fill="#F8AF5A"
   d="M121.954,66.201c0.051,0,0.106,0.014,0.164,0.043c0.197,0.065,0.329,0.327,0.264,0.525   c-0.199,0.461-0.264,0.791-0.264,1.185c0,0.132-0.065,0.394-0.065,0.592c0,0.065-0.067,0.132-0.067,0.197   c-0.13,0.197-0.197,0.264-0.262,0.329c-0.089,0.059-0.164,0.091-0.227,0.091c-0.075,0-0.132-0.047-0.168-0.156   c-0.132-0.067-0.132-0.264-0.197-0.396v-0.262c0-0.262,0.065-0.459,0.065-0.659c0.132-0.394,0.197-0.789,0.329-1.118   C121.629,66.367,121.771,66.201,121.954,66.201z"
   id="path73" />
	<path
   fill="#F8AF5A"
   d="M114.248,68.163c0.059,0,0.118,0.018,0.174,0.053c0.329,0.067,0.394,0.197,0.329,0.461   c-0.132,0.394-0.197,0.854-0.329,1.183c-0.13,0.132-0.197,0.394-0.262,0.526c-0.065,0.132-0.065,0.197-0.197,0.264   c-0.067,0.065-0.067,0.197-0.197,0.262c-0.055,0.028-0.12,0.043-0.179,0.043c-0.083,0-0.15-0.032-0.15-0.108v-0.594   c0-0.262,0.065-0.394,0.132-0.657c0.065-0.394,0.262-0.856,0.327-1.185C113.942,68.271,114.094,68.163,114.248,68.163z"
   id="path75" />
	<path
   fill="#F8AF5A"
   d="M130.145,73.923c0.213,0,0.404,0.128,0.457,0.345c0.132,0.394,0.329,0.921,0.461,1.315   c0.13,0.264,0.197,0.526,0.197,0.856c0,0.329,0,0.724-0.394,0.789c-0.039,0.014-0.079,0.018-0.118,0.018   c-0.174,0-0.355-0.095-0.408-0.148c-0.067-0.132-0.132-0.264-0.132-0.329l-0.262-0.791c-0.197-0.459-0.264-0.854-0.329-1.38   c-0.067-0.262,0.065-0.592,0.394-0.659C130.057,73.929,130.102,73.923,130.145,73.923z"
   id="path77" />
	<path
   fill="#F8AF5A"
   d="M124.106,76.626c0.211,0,0.321,0.221,0.381,0.339c0,0.329,0,0.657-0.065,0.986   c0,0.197-0.067,0.329-0.132,0.527c-0.132,0.065-0.132,0.132-0.197,0.197c-0.067,0.132-0.132,0.132-0.264,0.197   c-0.03,0.016-0.069,0.024-0.108,0.024c-0.132,0-0.286-0.085-0.286-0.286v-0.067v-0.262c0-0.065,0-0.132,0.067-0.132   c0-0.197,0.13-0.262,0.13-0.459v-0.067v-0.13v-0.461c0-0.197,0.264-0.394,0.394-0.394   C124.054,76.628,124.082,76.626,124.106,76.626z"
   id="path79" />
	<path
   fill="#F8AF5A"
   d="M117.234,77.114c0.049,0,0.101,0.012,0.148,0.035c0.197,0.065,0.396,0.394,0.329,0.659l-0.262,1.183   c-0.067,0.197-0.067,0.461-0.197,0.592l-0.197,0.527c-0.132,0.067-0.132,0.132-0.197,0.132l-0.067,0.065   c-0.124,0.126-0.223,0.172-0.329,0.172c-0.061,0-0.124-0.016-0.197-0.039c-0.13-0.132-0.327-0.262-0.327-0.461v-0.065V79.65   c0-0.132,0-0.197,0.13-0.394c0.067-0.132,0.132-0.396,0.197-0.594c0.197-0.394,0.264-0.789,0.461-1.118   C116.778,77.329,117.007,77.114,117.234,77.114z"
   id="path81" />
</g><g
     style=""
     id="Ebene_2">
	<path
   fill="#584350"
   d="M149.6,32.249c0.13,0,0.197,0.065,0.197,0.065c0,0.132-0.067,0.262-0.394,0.461   c-0.067,0.065-9.276,2.498-13.551,4.011c-3.684,1.25-6.182,2.565-7.564,3.356c-0.197-0.461-0.262-0.988-0.329-1.579   c0.921-0.394,2.368-0.986,4.737-1.71C136.313,35.735,146.508,32.973,149.6,32.249z"
   id="path84" />
	<path
   fill="#2D3126"
   d="M115.393,33.469c1.909,0,3.512,1.499,3.818,3.449c0.329,2.171-1.118,4.21-3.157,4.472   c-0.156,0.02-0.31,0.03-0.461,0.03c-1.858,0-3.51-1.447-3.816-3.516c-0.327-2.104,1.118-4.143,3.159-4.407   C115.09,33.479,115.242,33.469,115.393,33.469z"
   id="path86" />
</g><g
     style=""
     id="Ebene_8">
	<circle
   fill="#FAF9F8"
   cx="114.341"
   cy="37.445"
   r="1.333"
   id="circle89" />
</g></g></svg>