<svg version="1.1" viewBox="0.0 0.0 960.0 540.0" fill="none" stroke="none" stroke-linecap="square" stroke-miterlimit="10" xmlns:xlink="http://www.w3.org/1999/xlink" xmlns="http://www.w3.org/2000/svg"><clipPath id="g18bc8a8eff2_0_0.0"><path d="m0 0l960.0 0l0 540.0l-960.0 0l0 -540.0z" clip-rule="nonzero"/></clipPath><g clip-path="url(#g18bc8a8eff2_0_0.0)"><path fill="#fdfdfd" d="m0 0l960.0 0l0 540.0l-960.0 0z" fill-rule="evenodd"/><path fill="#574250" d="m236.39066 372.72443c0.8157501 0 1.8114471 1.8833923 0.97169495 2.9053955c-6.0041504 8.278198 -13.004013 15.58548 -20.009857 22.403687c-6.9998627 7.3000183 -14.203659 14.118195 -21.809326 20.695496c-14.60553 13.877319 -32.414078 28.491913 -47.41548 41.398315c-0.96569824 0.82489014 -2.123352 1.1679993 -3.2210083 1.1679993c-2.783142 0 -5.194412 -2.175415 -3.185028 -4.0880127c14.60553 -13.395508 35.017273 -31.660095 50.018677 -45.055603c7.40773 -6.8181763 14.6115265 -13.388184 22.211197 -19.717285c7.2037964 -6.818207 14.203659 -13.884613 22.007263 -19.483704c0.13195801 -0.1532898 0.2819214 -0.22628784 0.4318695 -0.22628784z" fill-rule="evenodd"/><path fill="#574250" d="m135.15672 456.87558c2.3087158 0 4.5856323 0.2607422 6.474579 1.4373779c0.63601685 0.84588623 0.4261322 2.1242676 -0.6360016 2.1242676c-3.606186 0 -7.2123566 1.0557861 -10.8185425 1.4819031c-4.458435 0.2098999 -9.126747 1.0621338 -13.795067 1.4882812c-3.1800537 0.20986938 -6.9961166 0.6359863 -9.756401 2.11792c-3.1800537 1.90802 -4.8781967 5.940338 -5.940338 9.1267395c-0.42612457 1.2720032 -0.42612457 3.389923 -1.488266 4.452057c-0.43884277 0.44522095 -0.99217224 0.6614685 -1.5200653 0.6614685c-0.73140717 0 -1.4119415 -0.43249512 -1.6599884 -1.2974548c-1.698143 -2.7602844 0.63601685 -7.8483887 2.1242752 -10.182526c1.4819107 -3.186432 3.606186 -5.940338 6.576355 -7.4286194c3.180046 -1.90802 6.5763474 -2.5440369 9.966278 -2.7539368c4.8845673 -0.42611694 9.972649 -1.0621338 15.067085 -1.0621338c1.6981506 0 3.5616608 -0.16534424 5.4060974 -0.16534424z" fill-rule="evenodd"/><path fill="#574250" d="m108.424126 457.31488c1.6593475 -0.14730835 3.2721252 -0.21386719 4.780533 -0.24560547c5.614029 0.14013672 11.228058 0.28024292 16.86065 0.62942505c2.941742 0.37734985 5.6516876 0.5645752 8.555771 0.5174866c2.2634583 0.22686768 4.281784 0.2647705 6.154419 1.1584473c0.9716797 0.27767944 0.75035095 1.5679626 -0.042663574 1.6383667c-0.1466217 0.013031006 -0.31048584 -0.017120361 -0.4921875 -0.09677124c-1.2332611 -0.2736206 -2.5195007 -0.23605347 -3.8323212 -0.119506836c-0.87965393 0.07809448 -1.7631531 0.18844604 -2.6561432 0.2677307c-2.4390411 0.21652222 -4.68338 0.2050476 -7.4052124 -0.1918335c-4.929077 0.009796143 -10.115173 -0.37902832 -15.28994 -0.5645447c-1.8937912 0.07873535 -3.8814468 0.15942383 -5.8673325 0.33572388c-2.4590302 0.21829224 -4.9123535 0.5765686 -7.209831 1.2530212c-3.0558853 0.90979004 -4.904991 2.7787476 -5.3088455 5.7964478c-0.38238525 1.2918091 -1.3983841 3.69339 -2.904457 3.8270874c-0.52646637 0.04675293 -1.1182022 -0.18804932 -1.7620697 -0.85879517c-1.7590485 -2.1871643 -0.11571503 -6.374817 1.9718552 -8.05423c3.6000977 -3.5568542 9.216499 -4.8280334 14.447777 -5.29245z" fill-rule="evenodd"/><path fill="#574250" d="m143.6729 458.76453c0.8459015 0 1.4501038 0.8904114 1.1384583 1.672699c-1.90802 2.7539368 -5.7240906 2.7539368 -8.484375 3.1800537c-3.606186 0.63601685 -7.8483734 1.0621338 -10.608658 3.6061707c-2.970169 2.3341675 -4.032303 7.0025024 -5.0944443 10.8185425c-0.84589386 2.9701843 -1.9080276 5.7304688 -1.6917877 8.700623c0 0.63601685 -0.42612457 1.2720337 -1.0621338 1.9080505c-0.21624756 0.20986938 -0.42612457 0.20986938 -0.8522568 0.20986938c-0.84589386 0 -1.6917877 -0.4197693 -1.9080276 -1.4819031c-0.84589386 -3.1800537 0.85224915 -7.002472 1.488266 -9.972626c1.0557709 -4.242218 1.9080276 -8.910522 4.8781967 -12.306824c2.5440445 -2.9701538 6.576355 -4.2421875 10.39241 -4.8782043c2.1242828 -0.20986938 4.2485504 -0.4197693 6.3664703 -0.4197693c0.42611694 0 0.94129944 0.019104004 1.488266 0.019104004c1.0812073 0 2.2578278 -0.09542847 2.970169 -0.6614685c0.3370819 -0.2798462 0.6741638 -0.39431763 0.9794464 -0.39431763z" fill-rule="evenodd"/><path fill="#574250" d="m143.05597 459.2479c0.4261322 0 0.864975 0.050872803 1.3292694 0.12719727c1.0621338 0 2.5503998 0.42611694 3.6125336 0.42611694c1.0557861 0 2.3278046 0.2098999 3.3899384 0.63601685c1.0621338 0.63601685 1.488266 1.4819031 2.3341522 2.11792c1.2720337 1.4882507 2.3341675 2.7602844 3.1864166 4.2421875c0.63601685 0.8522644 0.8459015 1.9143982 0.8459015 2.7602844c0.20988464 1.0621338 0.42611694 2.1242676 -0.20988464 3.1800537c-0.31800842 0.42611694 -0.80137634 0.63601685 -1.2783813 0.63601685c-0.47702026 0 -0.95402527 -0.2098999 -1.2720184 -0.63601685c-0.4197693 -0.84588623 -0.4197693 -1.90802 -0.4197693 -2.7539368c0 -0.6359863 -0.21624756 -1.2720032 -0.21624756 -2.1242676c-0.4197693 -1.2720032 -0.8459015 -3.1800537 -2.11792 -3.6061707c-0.85224915 -0.2098999 -1.6981506 -0.2098999 -2.5503998 -0.63601685c-0.6360016 -0.20986938 -1.2720184 -0.20986938 -2.3341522 -0.20986938c-1.0557861 0 -2.11792 -0.21624756 -3.1800537 -0.42614746c-1.0621338 -0.42611694 -2.11792 -0.8522339 -3.1800537 -1.4882507c-1.2720184 -0.2098999 -1.2720184 -1.2720337 -0.21624756 -1.691803c0.80773926 -0.40704346 1.5327911 -0.5533142 2.2769165 -0.5533142z" fill-rule="evenodd"/><path fill="#574250" d="m317.58997 366.7725c0.87771606 0 1.8889465 1.3547058 1.399231 2.3341675c-4.02594 8.694244 -9.330261 16.96875 -14.424713 25.243256c-4.8782043 8.274475 -10.608673 16.122864 -16.122864 23.761353c-11.03479 15.912964 -23.551483 30.763824 -35.006027 46.25067c-0.6996155 0.95401 -1.72995 1.3547058 -2.7475586 1.3547058c-2.3723297 0 -4.700119 -2.162445 -2.7666473 -4.5347595c11.454559 -15.912964 23.335236 -31.399841 35.006012 -46.88669c5.7240906 -7.8547363 11.028412 -15.7030945 16.96875 -23.761353c5.520569 -7.8547363 10.8185425 -15.912994 16.975128 -23.341583c0.19717407 -0.29257202 0.4515686 -0.4197693 0.71868896 -0.4197693z" fill-rule="evenodd"/><path fill="#574250" d="m246.66844 460.05615c1.8953094 0 3.7588196 0.25439453 5.4951324 1.1257324c0.84588623 0.4197693 0.20988464 1.9080505 -0.85224915 2.11792c-1.9080353 0.20986938 -3.606186 0.8522644 -5.2979736 1.0621338c-2.1242676 0.42611694 -4.2485504 0.84588623 -6.3664703 1.0621338c-4.2421875 0.84591675 -8.27449 1.4819031 -12.516678 2.3341675c-3.1864166 0.63601685 -6.7926025 1.0557861 -9.546524 2.9701538c-2.7602844 1.9080505 -4.2421875 5.724121 -4.884552 8.910522c-0.4197693 1.6917725 -0.4197693 3.8160706 -1.4819031 5.0880737c-0.48973083 0.58514404 -1.062149 0.85861206 -1.6281891 0.85861206c-0.66145325 0 -1.3101807 -0.3815918 -1.7681122 -1.0684814c-1.9080353 -2.9701843 0.6360016 -8.064606 1.6981506 -10.608673c1.488266 -3.3962708 3.396286 -6.1502075 6.5763397 -8.274475c2.5440521 -1.9080505 6.1565857 -2.3341675 9.336639 -2.9701843c4.6683197 -0.63601685 9.756393 -1.6981506 14.424713 -2.1242676c2.2006073 -0.114471436 4.5283966 -0.48336792 6.811676 -0.48336792z" fill-rule="evenodd"/><path fill="#574250" d="m223.52402 457.93335c5.3043365 0 10.608658 0.42611694 15.906631 1.0621338l7.854721 0.8522644c2.11792 0 4.025955 0.20986938 5.940338 1.0557556c0.3943329 0.6042175 -0.14628601 2.1433716 -0.9158478 2.1433716c-0.05088806 0 -0.09541321 -0.006378174 -0.14628601 -0.019104004c-1.2720184 -0.3815918 -2.5440369 -0.45791626 -3.7715454 -0.45791626c-0.8204498 0 -1.6154633 0.031799316 -2.3786774 0.031799316c-2.5503998 0 -5.3043213 0 -7.638489 -0.20986938c-4.884552 -0.2098999 -9.336624 -0.42614746 -14.004944 -0.8522644c-4.032318 0 -8.058258 0 -12.090561 1.4882507c-3.1864166 1.0621643 -4.458435 2.7602844 -5.3043365 5.7304688c-0.3052826 1.5009766 -1.3483429 3.5362244 -2.6139984 3.5362244c-0.52153015 0 -1.0748596 -0.34344482 -1.6281891 -1.2020569c-1.6981506 -2.3341675 0 -6.3664856 1.9080353 -8.064636c4.8782043 -4.878174 12.516693 -5.0944214 18.883148 -5.0944214z" fill-rule="evenodd"/><path fill="#574250" d="m253.44196 460.69217c0.85224915 0 1.4819031 0.61691284 1.0557709 1.3356018c-0.85224915 2.5440674 -3.6061707 3.6062012 -6.1565704 4.668335c-3.1800537 1.6981506 -6.576355 2.9701538 -9.120392 5.3043213c-2.11792 2.11792 -2.7602844 4.8782043 -3.1800537 7.638489c-0.63601685 3.8160706 -0.4261322 7.212372 1.0621338 10.602295c0.4261322 1.4373779 -1.0812225 2.6776123 -2.3659515 2.6776123c-0.61694336 0 -1.1829834 -0.28622437 -1.4564667 -0.97946167c-1.4819031 -3.8160706 -1.9080353 -7.638489 -1.2720184 -11.664429c0.20986938 -3.186432 0.42611694 -6.576355 2.3341522 -9.336639c2.11792 -2.9701843 5.514206 -5.094452 8.700623 -6.366455c1.6917877 -0.84591675 3.606186 -1.2720337 5.2979736 -1.9080505c1.488266 -0.20986938 2.970169 -0.42611694 3.8224182 -1.4819031c0.41340637 -0.34979248 0.8713379 -0.48971558 1.2783813 -0.48971558z" fill-rule="evenodd"/><path fill="#574250" d="m259.9547 461.2964c0.38796997 0 0.7632141 0.025421143 1.1193542 0.09539795c1.0621643 0.20986938 1.9080505 1.0621338 2.7602844 1.6981506c1.691803 1.0621338 2.9701843 2.1178894 4.0259705 3.389923c1.0621338 1.2783813 2.334137 3.6125488 1.6981506 5.520569c-0.13357544 0.661438 -0.680542 0.9921875 -1.2783813 0.9921875c-0.35617065 0 -0.73779297 -0.12084961 -1.0557861 -0.35617065c-0.84588623 -0.8522644 -0.84588623 -1.6981506 -1.0621338 -2.5440369l-0.63601685 -2.3341675c-0.63601685 -1.2783813 -1.4819031 -2.7602844 -2.9701538 -3.1864014c-0.2798462 -0.06997681 -0.56607056 -0.09542847 -0.8522644 -0.09542847c-0.58514404 0 -1.1957092 0.09542847 -1.9016724 0.09542847c-1.0621338 0 -1.9080505 0 -2.9701843 0.21621704c-0.35614014 0.06997681 -0.70596313 0.08905029 -1.0621338 0.08905029c-0.70596313 0 -1.4119415 -0.08905029 -2.1242676 -0.08905029c-1.0557709 0 -2.11792 -0.21621704 -3.1800537 -0.42611694c-0.019073486 0.01272583 -0.031799316 0.02545166 -0.044525146 0.02545166c-0.1907959 0 -0.31799316 -1.1321106 0.47065735 -1.7236023c1.0621338 -0.42611694 2.1179047 -1.0621338 3.3899384 -1.0621338c1.0621338 0 2.3341675 -0.20986938 3.3963013 -0.20986938c0.70596313 0 1.5073242 -0.09539795 2.2769165 -0.09539795z" fill-rule="evenodd"/><path fill="#574250" d="m372.87836 330.9142c0 0 137.48004 90.167206 137.05392 96.53369c-0.63601685 6.3601074 -15.912994 13.362579 -51.128906 16.122864c-4.7128296 0.39431763 -8.878693 0.5851135 -12.612091 0.5851135c-24.359192 0 -30.15326 -8.185455 -46.155273 -21.80243c-18.037262 -15.486847 -76.58838 -78.07028 -76.58838 -78.07028l49.430725 -13.3689575z" fill-rule="evenodd"/><path fill="#705e6b" d="m361.92627 340.8487c0.2416687 0 0.5024414 0.07632446 0.76956177 0.24804688c4.2421875 2.550415 8.064606 5.940338 11.670807 9.12677c4.2421875 3.6061707 8.484375 7.2123413 12.7265625 10.608643c8.274506 6.9961243 16.75888 14.214844 25.033386 21.001068c16.339111 13.578827 32.461975 27.367523 49.010956 40.94635c7.422241 5.940338 14.85083 12.090576 22.489319 18.247131c-0.42611694 -0.10809326 -0.8013611 -0.15899658 -1.1702576 -0.15899658c-0.36886597 0 -0.7441101 0.05090332 -1.1638794 0.15899658c-14.214844 -10.82489 -28.219788 -22.489319 -42.008514 -34.160095c-16.339111 -13.788727 -33.09796 -27.367554 -49.856842 -40.94638c-4.458435 -3.6061707 -9.120392 -7.422241 -13.788727 -11.028412c-4.6683044 -4.032318 -10.182526 -7.428589 -14.431061 -12.096924c-0.8395386 -0.8395386 -0.2098999 -1.9461975 0.71868896 -1.9461975z" fill-rule="evenodd"/><path fill="#705e6b" d="m350.70703 353.02832c0.41342163 0 0.8395386 0.20986938 1.1257324 0.71868896l0 0c0.08905029 0.114471436 0.19082642 0.22894287 0.25442505 0.2925415l0.8522339 0.8522644l2.3278198 2.3341675c2.1242676 2.11792 4.248535 4.452057 6.366455 6.576355c6.1565857 6.360077 12.516693 12.7265625 18.883148 18.87677c11.670807 11.670807 23.761353 23.341583 35.21591 35.22226c8.490723 9.120392 18.037262 17.604767 26.311737 26.731537c-1.0621338 0 -2.1242676 -0.21624756 -3.1864014 -0.21624756c-7.638489 -7.848358 -16.122864 -15.27063 -23.971222 -23.335236c-4.458435 -4.6683044 -9.546539 -9.336639 -14.214844 -13.788696c-13.788696 -13.578827 -27.58377 -26.30539 -40.520233 -39.464447c-4.032318 -4.02594 -8.274506 -8.274506 -10.608643 -12.726593c-0.56607056 -1.1320801 0.2798462 -2.0733643 1.1638794 -2.0733643z" fill-rule="evenodd"/><path fill="#574250" d="m185.78316 70.78593c39.000168 0 58.315796 26.973206 58.315796 26.973206c0 0 -23.545105 2.7539215 -39.66797 23.335228c-16.548996 20.791183 -32.035843 131.95946 -31.399841 155.9307c0.63601685 23.9776 11.028427 82.31885 11.028427 82.31885c0 0 -2.0097961 0.20352173 -5.285248 0.20352173c-7.3650055 0 -21.153717 -1.0176392 -32.900818 -7.625763c-16.975128 -9.546539 -29.491814 -23.761353 -43.490402 -54.10544c-18.883156 -40.939972 -24.397362 -87.61679 -10.398773 -130.68742c15.27697 -47.306465 44.34265 -92.921135 87.40692 -96.10119c2.1878815 -0.1653595 4.318512 -0.24168396 6.3919067 -0.24168396z" fill-rule="evenodd"/><path fill="#f2d65e" d="m123.04072 177.31769c13.178139 0 29.727135 6.2583466 47.23014 8.69426c35.006027 5.3043213 103.11003 40.94635 130.68745 64.49782c27.367523 23.761353 71.920044 87.61682 71.920044 87.61682c0 0 -34.579895 46.040802 -119.65265 46.67679c-0.48336792 0 -0.96673584 0.006378174 -1.4437408 0.006378174c-84.01062 0 -117.23581 -36.818665 -131.7941 -55.59369c-19.302917 -24.607239 -32.245728 -78.07028 -23.971237 -123.04895c4.0323105 -22.59108 13.845955 -28.849426 27.024086 -28.849426z" fill-rule="evenodd"/><path fill="#cbc4c9" d="m285.6368 272.36945c7.822937 0 15.416901 1.1829834 21.47171 4.445709c8.490753 4.458435 23.341583 14.424744 38.612183 24.613617c9.972656 12.516693 18.037262 24.181122 22.915466 30.757477l4.4520874 -1.0557861c0 0 7.428589 4.8782043 18.883148 12.516693c-4.8782043 6.3601074 -12.94281 16.122864 -22.909088 22.063202c-5.5205994 3.3963013 -11.880676 5.7240906 -18.037262 7.638489c-3.1800537 -3.3963013 -6.3601074 -6.7926025 -9.120392 -9.762756c-2.9701843 1.4882507 -6.150238 3.1864014 -9.336639 4.6683044c3.3963013 -3.3963013 6.7926025 -6.7862244 8.910492 -9.756409c5.940338 -7.428589 -2.5440369 -6.366455 -52.19101 -33.30786c-49.856857 -28.009888 -46.670456 -44.55252 -46.670456 -44.55252c0 0 22.330338 -8.268158 43.01976 -8.268158z" fill-rule="evenodd"/><path fill="#574250" d="m222.88802 170.52509c0 0 66.39949 16.122879 112.23039 75.316376c37.55008 48.158722 50.066772 98.44171 50.066772 98.44171c0 0 -3.8860474 1.3547058 -12.338623 1.3547058c-14.233917 0 -41.429718 -3.8478699 -84.831085 -24.480072c-69.37601 -32.888092 -77.8604 -89.321304 -81.25668 -101.83798c-3.3899384 -12.516693 16.129227 -48.79474 16.129227 -48.79474z" fill-rule="evenodd"/><path fill="#705e6b" d="m224.36992 170.52509l0 0c7.638489 2.3341675 68.10399 20.155182 110.74849 75.316376c17.604797 22.489319 29.485474 45.614655 37.55008 63.64557c-3.7842712 3.7079468 -8.299957 5.1580505 -13.006409 5.1580505c-7.9565125 0 -16.447235 -4.1531677 -22.851868 -8.554352c-11.664429 -8.058258 -21.846954 -17.821014 -29.70169 -29.275574l0 0c0.42611694 5.7304688 0.8522644 12.942841 -4.2421875 16.339111c-1.5963745 1.0621338 -3.3454285 1.5200806 -5.1453247 1.5200806c-4.6428833 0 -9.641937 -3.033783 -13.311707 -6.4046326c-11.028412 -10.195251 -19.404663 -23.252533 -24.327393 -37.168457l0 0c0.78863525 3.4026642 -3.1228027 7.046997 -6.856201 7.046997c-4.2421875 0 -7.638489 -2.3341522 -10.82489 -5.3043213c-22.273087 -20.155182 -27.577423 -54.09906 -18.0309 -82.31885z" fill-rule="evenodd"/><path fill="#ff8800" d="m204.6981 78.28449c31.272644 0 44.069168 22.33033 46.403336 34.325485c2.970169 15.486855 -9.756409 36.487923 -2.970169 74.03799c7.2123566 37.766296 26.731522 123.9012 -30.97371 148.93459c-13.057297 5.75589 -26.025558 8.573395 -38.40233 8.573395c-38.707596 0 -71.64021 -27.564667 -83.37461 -79.011566c-16.339111 -75.31001 25.669388 -162.29716 79.34867 -181.18031c11.479996 -4.0068665 21.414474 -5.679573 29.968811 -5.679573z" fill-rule="evenodd"/><path fill="#ffb057" d="m229.66151 186.36176c0.680542 0 1.3356323 0.27348328 1.5009918 0.9222107c0.8459015 1.6981506 1.6917877 3.3963013 2.3278046 4.8845673c0.6423645 1.0557709 0.85224915 1.9080353 1.0621338 2.970169c0.4261322 1.0557709 0.6360016 2.3341522 -0.20988464 3.1800537c-0.12719727 0.36888123 -0.46429443 0.59783936 -0.80773926 0.59783936c-0.24803162 0 -0.5024414 -0.12083435 -0.68052673 -0.3879547c-0.63601685 -0.20988464 -0.84588623 -0.4197693 -1.0557709 -1.0557861c-0.4261322 -0.42611694 -0.63601685 -0.6423645 -0.63601685 -1.2783813c-0.21624756 -0.84588623 -0.85224915 -1.9080353 -1.0621338 -2.5440369c-0.4261322 -1.9080353 -1.2720184 -3.606186 -1.9080353 -5.3043365c-0.21624756 -0.84588623 0.4197693 -1.6981354 0.8459015 -1.90802c0.19715881 -0.05088806 0.41340637 -0.07632446 0.62327576 -0.07632446z" fill-rule="evenodd"/><path fill="#ffb057" d="m213.97751 189.40825c0.84588623 0 1.2720184 0.42611694 1.2720184 1.2720184l0 2.970169l0 0.6360016l0 1.062149l0 0.84588623c0 0.21624756 -0.21624756 0.63601685 -0.4261322 0.8522644c-0.31800842 0.20986938 -0.5851288 0.31799316 -0.84588623 0.31799316c-0.26713562 0 -0.534256 -0.10812378 -0.8522644 -0.31799316c-0.20988464 -0.21624756 -0.20988464 -0.63601685 -0.42611694 -0.8522644l0 -0.84588623l0 -1.062149l0 -0.6360016l0 -2.970169c0 -0.8459015 0.42611694 -1.2720184 1.2783813 -1.2720184z" fill-rule="evenodd"/><path fill="#ffb057" d="m185.91035 186.11371c0.16537476 0 0.33073425 0.031799316 0.48336792 0.114486694c1.062149 0.4197693 1.2720184 1.2720184 1.2720184 2.1179047c-0.20986938 1.6981506 -0.41975403 3.3963013 -0.84588623 5.3043365c0 0.6360016 -0.20988464 1.6981506 -0.20988464 2.5440369c0 0.63601685 -0.21624756 1.0621338 -0.21624756 1.488266c0 0.63601685 -0.20988464 1.2720184 -0.6360016 1.6981506c-0.08905029 0.35617065 -0.36889648 0.48973083 -0.6741791 0.48973083c-0.42611694 0 -0.9031372 -0.24804688 -1.0239716 -0.48973083c-0.4197693 -0.63601685 -0.63601685 -0.85224915 -0.8459015 -1.2720184c0 -0.63601685 -0.2162323 -1.0621338 -0.2162323 -1.6981506c0 -1.0621338 0 -1.9080353 0.2162323 -2.7602844c0.20988464 -2.11792 0.8459015 -4.032303 1.062149 -6.150223c0.17172241 -0.69325256 0.90948486 -1.3865051 1.6345367 -1.3865051z" fill-rule="evenodd"/><path fill="#ffb057" d="m224.36992 212.95972c1.0621338 0.20988464 1.6981506 0.84588623 1.6981506 1.4819031l0 0.6360016l0 0.21624756l0 0.20988464l0 0.63601685c0 0.42611694 0.42611694 1.0621338 0.42611694 1.4819031c0.20988464 0.6423645 0.20988464 1.0621338 0.20988464 1.6981506l0 1.2720184c0 0.42611694 -0.20988464 1.0621338 -0.84588623 1.2783813c-0.4261322 0.20988464 -0.8522644 0.20988464 -1.2783813 0.20988464c0.114471436 0.10812378 0.12083435 0.14627075 0.08267212 0.14627075c-0.06996155 0 -0.31800842 -0.13356018 -0.38160706 -0.17807007l0 0c-0.54696655 -0.20353699 -0.5596924 -0.4261322 -0.7568512 -1.0303497c0 -0.20986938 -0.21624756 -0.42611694 -0.21624756 -0.6360016c-0.41975403 -0.63601685 -0.41975403 -1.0621338 -0.41975403 -1.9080353c-0.21624756 -1.2720184 -0.21624756 -2.7602844 -0.21624756 -4.032303c0 -0.8459015 0.85224915 -1.4819031 1.6981506 -1.4819031z" fill-rule="evenodd"/><path fill="#ffb057" d="m203.05084 215.78996c0.1653595 0 0.34344482 0.044525146 0.52789307 0.1399231c0.6360016 0.20988464 1.0621338 1.0557709 0.85224915 1.6917877c-0.6423645 1.488266 -0.85224915 2.5503998 -0.85224915 3.8224182c0 0.4261322 -0.20988464 1.2720184 -0.20988464 1.9080353c0 0.20988464 -0.21624756 0.4261322 -0.21624756 0.6360016c-0.4197693 0.63601685 -0.63601685 0.8522644 -0.84588623 1.062149c-0.2862091 0.1907959 -0.52789307 0.29255676 -0.7314148 0.29255676c-0.24168396 0 -0.4261322 -0.15263367 -0.5406189 -0.5024414c-0.42611694 -0.21624756 -0.42611694 -0.8522644 -0.6360016 -1.2783813l0 -0.8459015c0 -0.84588623 0.20988464 -1.4819031 0.20988464 -2.1242676c0.42611694 -1.2720184 0.6360016 -2.5440521 1.0621338 -3.606186c0.330719 -0.66145325 0.7886505 -1.195694 1.3801422 -1.195694z" fill-rule="evenodd"/><path fill="#ffb057" d="m178.19556 222.11827c0.1907959 0 0.38160706 0.057235718 0.5596771 0.17172241c1.062149 0.2162323 1.2720337 0.6360016 1.062149 1.488266c-0.4261322 1.2720184 -0.63601685 2.7539215 -1.062149 3.8160553c-0.41975403 0.4261322 -0.6360016 1.2720184 -0.84588623 1.6981506c-0.20988464 0.42611694 -0.20988464 0.6360016 -0.63601685 0.85224915c-0.2162323 0.20988464 -0.2162323 0.63601685 -0.6360016 0.8459015c-0.17808533 0.089035034 -0.38796997 0.1399231 -0.57876587 0.1399231c-0.26713562 0 -0.48336792 -0.101760864 -0.48336792 -0.34980774l0 -1.9143982c0 -0.84588623 0.20986938 -1.2720184 0.42611694 -2.1179047c0.20988464 -1.2720337 0.8459015 -2.7602997 1.0557861 -3.8224335c0.15263367 -0.45793152 0.6423645 -0.807724 1.1384583 -0.807724z" fill-rule="evenodd"/><path fill="#ffb057" d="m229.47072 240.69614c0.68688965 0 1.3038177 0.41340637 1.4755402 1.1130066c0.4261322 1.2720337 1.062149 2.970169 1.488266 4.2422028c0.4197693 0.85224915 0.63601685 1.6981354 0.63601685 2.7602844c0 1.0621338 0 2.3341522 -1.2720184 2.5440369c-0.12721252 0.044525146 -0.2544098 0.057235718 -0.38160706 0.057235718c-0.5596924 0 -1.1448212 -0.3052826 -1.3165436 -0.477005c-0.21624756 -0.4261322 -0.4261322 -0.85224915 -0.4261322 -1.0621338l-0.84588623 -2.5503998c-0.63601685 -1.4819031 -0.8522644 -2.7539368 -1.062149 -4.452072c-0.2162323 -0.8459015 0.20988464 -1.9080353 1.2720337 -2.1242828c0.14627075 -0.031799316 0.29255676 -0.050872803 0.43247986 -0.050872803z" fill-rule="evenodd"/><path fill="#ffb057" d="m209.98972 249.41583c0.68052673 0 1.0366974 0.7123413 1.2275085 1.0939331c0 1.062149 0 2.11792 -0.20988464 3.1800537c0 0.63601685 -0.21624756 1.062149 -0.4261322 1.6981506c-0.4261322 0.20988464 -0.4261322 0.4261322 -0.63601685 0.63601685c-0.2162323 0.42611694 -0.42611694 0.42611694 -0.85224915 0.63601685c-0.09539795 0.050872803 -0.22261047 0.07632446 -0.34980774 0.07632446c-0.42611694 0 -0.9222107 -0.27349854 -0.9222107 -0.92222595l0 -0.21624756l0 -0.84588623c0 -0.20988464 0 -0.4261322 0.21624756 -0.4261322c0 -0.63601685 0.41975403 -0.8459015 0.41975403 -1.4819031l0 -0.21624756l0 -0.4197693l0 -1.488266c0 -0.6360016 0.8522644 -1.2720184 1.2720337 -1.2720184c0.09539795 -0.025436401 0.18443298 -0.031799316 0.26075745 -0.031799316z" fill-rule="evenodd"/><path fill="#ffb057" d="m187.82475 249.96916c0.15899658 0 0.32435608 0.03816223 0.477005 0.114486694c0.63601685 0.20988464 1.2783813 1.2720184 1.0621338 2.1242676l-0.84588623 3.8160706c-0.21624756 0.63601685 -0.21624756 1.4882507 -0.63601685 1.90802l-0.6360016 1.6981506c-0.4261322 0.21624756 -0.4261322 0.42614746 -0.63601685 0.42614746l-0.21624756 0.20986938c-0.40068054 0.40704346 -0.71868896 0.5533142 -1.0621338 0.5533142c-0.19715881 0 -0.40068054 -0.050872803 -0.63601685 -0.12719727c-0.41975403 -0.42611694 -1.0557709 -0.84588623 -1.0557709 -1.4882507l0 -0.2098999l0 -0.84588623c0 -0.42611694 0 -0.63601685 0.4197693 -1.2720032c0.21624756 -0.42614746 0.4261322 -1.2783966 0.6360016 -1.9143982c0.63601685 -1.2720337 0.8522644 -2.5440521 1.488266 -3.606186c0.17172241 -0.69325256 0.9095001 -1.3865051 1.6409149 -1.3865051z" fill-rule="evenodd"/><path fill="#2c3025" d="m185.11534 114.21272c6.1565857 0 11.327347 4.833679 12.313171 11.123825c1.0621338 7.002472 -3.606186 13.578827 -10.182526 14.424713c-0.50245667 0.06359863 -0.99853516 0.09539795 -1.488266 0.09539795c-5.991226 0 -11.320984 -4.6683044 -12.306808 -11.340057c-1.0557709 -6.786232 3.606186 -13.362579 10.188889 -14.214836c0.49609375 -0.057243347 0.9858246 -0.08904266 1.4755402 -0.08904266z" fill-rule="evenodd"/><path fill="#ffffff" d="m180.80956 123.40943c1.9779968 0 3.7142944 1.634552 4.312149 3.835144c0.20988464 2.3341599 -1.0621338 4.4584427 -3.6061707 4.8845596c-0.12084961 0.006362915 -0.24168396 0.01272583 -0.36253357 0.01272583c-1.9907074 0 -3.8923798 -1.634552 -4.0959015 -3.835144c-0.20988464 -2.3341599 1.0621338 -4.452072 3.396286 -4.8782043c0.12084961 -0.012718201 0.24168396 -0.019081116 0.35617065 -0.019081116z" fill-rule="evenodd"/><path fill="#facc00" d="m276.809 109.27092c10.494171 0 18.75595 0.24804688 19.05487 1.0048981c0.8522339 2.1179123 -56.643097 36.487915 -59.82315 38.39595c-0.2798462 0.17172241 -0.57876587 0.24804688 -0.9031372 0.24804688c-3.3517761 0 -8.776947 -8.872345 -10.131653 -21.458992c-1.2720184 -13.795067 6.7926025 -17.401245 6.7926025 -17.401245c0 0 26.12732 -0.78865814 45.010468 -0.78865814z" fill-rule="evenodd"/><path fill="#574250" d="m295.4441 110.27582c0.4197693 0 0.63601685 0.20988464 0.63601685 0.20988464c0 0.42612457 -0.21624756 0.84589386 -1.2720337 1.488266c-0.21624756 0.20988464 -29.917938 8.05825 -43.706635 12.936455c-11.880676 4.0323105 -19.938934 8.274498 -24.39737 10.824898c-0.6360016 -1.488266 -0.84588623 -3.1864166 -1.0621338 -5.094452c2.970169 -1.2720184 7.638489 -3.180046 15.276978 -5.514206c11.670792 -3.6061783 44.55252 -12.5166855 54.525177 -14.850845z" fill-rule="evenodd"/></g></svg>